<?xml version="1.0" standalone="no"?>
<!DOCTYPE svg PUBLIC "-//W3C//DTD SVG 20010904//EN"
 "http://www.w3.org/TR/2001/REC-SVG-20010904/DTD/svg10.dtd">
<svg version="1.0" xmlns="http://www.w3.org/2000/svg"
 width="1280.000000pt" height="853.000000pt" viewBox="0 0 1280.000000 853.000000"
 preserveAspectRatio="xMidYMid meet">
<metadata>
Created by potrace 1.15, written by Peter Selinger 2001-2017
</metadata>
<g transform="translate(0.000000,853.000000) scale(0.100000,-0.100000)"
fill="#000000" stroke="none">
<path d="M2205 7391 c-96 -26 -125 -38 -125 -53 0 -7 9 -62 20 -122 22 -122
26 -252 8 -291 -6 -14 -34 -39 -62 -56 -41 -26 -57 -30 -93 -26 -56 6 -130 52
-250 154 l-96 82 -48 -42 c-26 -23 -66 -63 -89 -90 l-42 -47 51 -56 c117 -127
191 -244 191 -299 0 -39 -49 -124 -82 -141 -40 -21 -178 -18 -304 7 -58 11
-112 18 -118 16 -12 -5 -45 -106 -64 -194 l-10 -41 105 -37 c140 -48 233 -96
271 -140 28 -31 32 -43 32 -95 0 -51 -4 -64 -30 -93 -38 -44 -119 -86 -250
-131 -58 -20 -110 -38 -116 -40 -9 -3 -8 -22 3 -68 16 -74 43 -160 52 -170 3
-4 56 2 116 13 138 26 269 30 309 9 37 -18 84 -94 85 -135 2 -61 -57 -156
-182 -298 l-60 -68 84 -85 c46 -46 88 -84 94 -84 6 0 39 25 75 56 130 114 205
162 272 174 31 6 46 2 90 -25 29 -17 59 -42 65 -56 19 -36 15 -176 -7 -291
-11 -57 -20 -111 -20 -120 0 -13 21 -24 78 -41 42 -14 95 -28 118 -31 l41 -7
33 93 c51 144 94 231 134 271 35 35 40 37 104 37 65 0 69 -1 105 -37 41 -43
92 -147 133 -276 l29 -88 35 6 c53 9 184 45 198 54 10 6 8 32 -9 127 -25 138
-30 256 -11 299 15 37 97 85 143 85 64 -1 134 -45 290 -182 l67 -58 74 69 c40
38 80 80 87 94 13 25 11 29 -48 94 -86 95 -152 193 -166 250 -12 46 -12 50 18
105 21 39 41 61 62 70 44 19 174 14 304 -11 92 -18 116 -20 122 -9 12 19 48
158 51 196 l3 34 -115 42 c-146 54 -196 79 -242 124 -36 34 -38 39 -38 99 0
41 6 72 16 88 31 48 115 91 307 160 l78 28 -6 41 c-12 71 -55 196 -68 196 -7
0 -61 -9 -121 -20 -123 -23 -259 -26 -295 -7 -39 19 -91 114 -84 151 10 55 62
139 148 241 47 55 85 105 85 111 0 6 -38 48 -85 93 l-85 83 -67 -59 c-139
-123 -236 -183 -293 -183 -44 0 -127 49 -142 85 -19 44 -14 183 10 310 12 60
18 113 14 117 -9 9 -191 58 -217 58 -17 0 -26 -15 -49 -87 -41 -128 -99 -245
-141 -282 -32 -28 -42 -31 -99 -31 -59 0 -65 2 -100 37 -44 44 -86 129 -131
262 -37 111 -37 112 -150 82z m554 -771 c421 -101 657 -553 500 -960 -112
-291 -408 -479 -720 -457 -315 23 -573 240 -650 548 -18 68 -20 103 -17 198 9
197 70 341 203 476 180 183 433 255 684 195z"/>
<path d="M2431 6404 c-217 -74 -351 -258 -351 -485 0 -291 257 -530 545 -506
205 18 368 142 445 342 31 80 34 233 6 315 -93 276 -380 425 -645 334z m277
-250 c95 -47 148 -143 140 -252 -5 -69 -28 -118 -75 -165 -47 -47 -96 -70
-163 -75 -112 -8 -203 42 -253 140 -50 97 -33 223 41 302 72 77 211 99 310 50z"/>
<path d="M6865 7069 c-44 -11 -102 -27 -128 -35 l-49 -16 7 -46 c6 -41 5 -44
-12 -37 -69 29 -163 57 -253 75 -88 18 -128 21 -250 17 -155 -5 -245 -25 -375
-82 -146 -65 -331 -215 -437 -355 -65 -85 -153 -265 -179 -365 -29 -110 -37
-323 -15 -424 14 -67 14 -76 -1 -105 -22 -43 -28 -200 -11 -298 8 -43 14 -78
14 -78 -220 58 -194 68 -251 -97 -65 -191 -115 -291 -175 -347 l-49 -46 -86 0
-86 0 -48 49 c-59 58 -109 160 -176 352 l-47 137 -86 -19 c-93 -20 -212 -57
-225 -69 -5 -4 4 -70 20 -146 31 -160 39 -364 15 -421 -16 -37 -138 -113 -183
-113 -73 0 -186 69 -362 220 l-117 101 -28 -20 c-15 -11 -69 -62 -121 -115
l-94 -95 59 -67 c199 -224 263 -325 264 -412 0 -62 -66 -175 -112 -192 -85
-30 -236 -21 -472 29 l-88 19 -14 -34 c-21 -49 -61 -194 -69 -244 l-6 -45 128
-44 c181 -62 306 -123 359 -176 l44 -44 0 -91 0 -90 -42 -46 c-51 -55 -169
-115 -348 -175 -69 -23 -129 -45 -134 -50 -15 -13 63 -319 82 -319 4 0 66 12
137 26 72 14 184 28 251 31 162 7 195 -6 247 -100 25 -44 37 -78 37 -104 0
-77 -70 -191 -228 -372 l-91 -104 57 -63 c31 -35 83 -87 116 -116 52 -45 61
-50 78 -39 18 11 19 10 14 -16 -3 -15 -38 -181 -77 -368 -39 -187 -71 -351
-71 -363 -1 -40 53 -104 111 -134 l53 -28 2719 0 c2259 0 2725 2 2752 13 52
22 98 68 123 122 22 46 24 63 24 205 0 133 -9 220 -60 610 -33 250 -65 523
-70 605 -8 132 -15 199 -35 346 -4 32 -2 38 19 43 30 7 110 -36 134 -72 23
-35 20 -155 -6 -287 -11 -55 -17 -103 -14 -107 10 -9 129 -44 177 -52 l40 -7
34 98 c42 123 81 200 118 235 23 22 38 27 88 29 33 1 70 -3 81 -9 35 -18 82
-102 129 -228 l44 -119 33 3 c39 3 177 42 183 52 2 4 -5 55 -15 115 -24 129
-26 235 -6 273 8 16 36 40 63 54 41 22 55 25 86 19 55 -13 114 -52 214 -140
l90 -79 61 55 c34 30 71 67 82 83 l21 30 -73 85 c-86 99 -137 179 -144 227 -5
26 1 45 23 83 47 80 104 90 309 55 65 -11 124 -18 130 -16 6 2 21 40 32 83 38
145 44 126 -59 162 -137 48 -192 75 -238 116 -40 36 -41 39 -41 100 0 61 1 64
41 100 46 41 101 68 238 116 103 36 97 17 59 162 -11 43 -26 81 -33 83 -6 3
-63 -4 -125 -16 -206 -37 -268 -25 -314 56 -21 37 -26 58 -22 83 7 47 59 128
144 227 l73 85 -36 44 c-20 24 -56 60 -81 80 l-45 37 -28 -24 c-189 -155 -224
-179 -287 -192 -26 -6 -42 -1 -84 25 -28 17 -56 43 -61 56 -14 37 -11 150 7
249 26 146 29 134 -52 160 -40 13 -88 24 -109 26 l-36 3 -44 -119 c-48 -127
-91 -205 -130 -230 -14 -9 -46 -16 -74 -16 -89 0 -141 67 -212 273 l-34 98
-40 -7 c-48 -8 -167 -43 -177 -52 -3 -4 3 -52 14 -107 23 -119 28 -238 10
-280 -8 -20 -31 -40 -66 -59 -53 -28 -54 -29 -99 -13 -56 19 -119 61 -214 144
-40 35 -76 63 -80 63 -5 0 -44 -36 -87 -79 l-79 -79 60 -69 c115 -132 163
-208 163 -259 0 -43 -47 -114 -86 -130 -46 -19 -97 -18 -248 7 -107 18 -129
20 -137 8 -14 -24 -50 -169 -47 -191 2 -16 25 -28 108 -57 126 -45 176 -70
218 -109 30 -28 32 -35 32 -97 0 -63 -2 -69 -32 -98 -34 -31 -143 -86 -214
-107 -40 -12 -48 -10 -460 145 -230 87 -440 169 -465 182 -57 30 -115 89 -163
164 l-35 57 26 52 c14 29 43 70 63 91 37 39 38 39 113 39 70 0 79 -2 110 -29
45 -40 81 -109 138 -265 l48 -131 43 2 c23 1 82 14 130 29 66 21 88 31 88 44
0 10 -9 62 -21 116 -25 119 -30 284 -10 331 16 39 105 93 153 93 67 0 180 -71
320 -200 l68 -61 36 27 c20 15 64 59 99 98 l64 69 -42 49 c-157 182 -209 260
-221 329 -5 31 -1 47 30 97 28 48 44 64 72 74 53 18 188 12 330 -15 l124 -24
10 26 c13 33 58 209 58 226 0 8 -36 25 -82 41 -195 64 -314 128 -343 184 -19
36 -18 124 1 162 28 54 132 112 327 179 l98 34 -7 40 c-8 52 -53 208 -62 216
-4 4 -63 -4 -132 -17 -134 -25 -277 -31 -328 -13 -45 15 -106 126 -96 172 15
70 71 158 186 289 38 42 68 81 68 87 0 13 -103 124 -152 162 l-39 32 -42 -40
c-76 -73 -210 -175 -261 -199 -28 -13 -65 -24 -83 -24 -45 0 -139 57 -155 94
-19 46 -14 204 11 331 11 61 21 115 21 122 0 23 -258 91 -265 69 -57 -186
-123 -332 -174 -386 -38 -40 -38 -40 -114 -40 -66 0 -79 3 -105 25 -40 33
-102 156 -148 290 -20 61 -40 113 -43 116 -3 4 -42 -2 -86 -12z m583 -850
c111 -28 240 -99 329 -183 460 -428 265 -1183 -346 -1337 -71 -18 -104 -20
-215 -16 -81 3 -151 11 -182 21 l-52 16 26 103 c13 56 28 106 32 110 4 5 31 1
61 -7 85 -25 225 -21 316 9 392 132 511 621 223 915 -96 96 -215 151 -360 166
l-70 7 0 114 0 115 83 -7 c45 -4 115 -16 155 -26z m-86 -496 c104 -47 160
-131 166 -251 4 -66 1 -79 -27 -137 -53 -107 -137 -159 -256 -158 -51 0 -83 6
-117 23 l-48 22 0 172 c0 188 4 216 30 216 29 0 52 34 84 124 6 16 14 18 65
13 32 -2 78 -14 103 -24z m-1975 -605 c6 -7 18 -47 27 -88 9 -41 40 -145 69
-230 28 -85 52 -159 52 -164 0 -12 -62 -34 -99 -35 -18 -1 -58 15 -99 40 -89
53 -101 78 -101 214 0 85 27 294 41 317 5 9 95 -35 110 -54z m4183 -734 c287
-67 500 -339 500 -639 0 -300 -213 -572 -500 -639 -83 -20 -239 -20 -315 -1
-226 57 -407 231 -476 455 -19 59 -23 99 -23 185 0 189 59 331 193 466 82 82
191 144 301 173 73 19 239 20 320 0z m-4687 -78 c163 -49 299 -130 416 -250
l64 -65 -17 -40 c-24 -52 -80 -105 -139 -131 l-48 -21 -78 74 c-142 135 -300
194 -500 184 -181 -8 -308 -65 -442 -197 -62 -62 -85 -94 -122 -170 -44 -91
-77 -209 -77 -279 0 -29 -3 -31 -72 -52 -91 -27 -125 -43 -165 -81 l-31 -30
-8 48 c-4 26 -4 91 -1 143 29 443 334 795 767 887 44 9 114 12 215 10 127 -3
164 -7 238 -30z m-139 -593 c26 -10 49 -22 50 -27 0 -4 -53 -27 -119 -51 -66
-23 -178 -63 -249 -89 -70 -26 -131 -44 -134 -41 -10 9 25 72 64 115 98 108
250 145 388 93z"/>
<path d="M9290 4196 c-205 -57 -344 -240 -344 -451 0 -407 483 -617 783 -339
124 114 177 290 136 449 -45 169 -182 307 -346 344 -59 14 -174 12 -229 -3z
m223 -233 c46 -19 113 -93 127 -142 14 -51 12 -126 -4 -165 -37 -89 -129 -149
-226 -149 -235 1 -327 300 -135 435 67 47 151 54 238 21z"/>
<path d="M10542 2948 l-74 -21 6 -31 c36 -177 32 -235 -20 -265 -19 -12 -42
-21 -50 -21 -26 0 -77 31 -153 93 l-75 60 -53 -57 -53 -57 55 -64 c55 -65 95
-132 95 -159 0 -8 -9 -31 -21 -50 -16 -27 -30 -37 -57 -42 -33 -6 -162 7 -218
22 -19 5 -23 -1 -39 -63 -10 -37 -18 -72 -19 -77 -1 -4 28 -18 64 -31 80 -27
128 -51 158 -78 30 -28 31 -98 1 -128 -22 -22 -114 -67 -181 -88 -44 -14 -47
-28 -22 -110 l15 -53 37 6 c78 12 191 18 215 12 14 -3 35 -22 48 -42 19 -31
20 -40 11 -72 -6 -21 -40 -73 -76 -117 l-65 -80 54 -54 54 -54 68 55 c113 92
151 104 210 68 44 -26 51 -70 30 -190 -9 -52 -13 -98 -9 -102 12 -11 132 -39
142 -33 6 3 10 11 10 16 0 25 64 169 86 192 20 22 34 27 74 27 46 0 52 -3 78
-38 15 -21 40 -75 56 -121 l28 -81 37 6 c20 4 52 12 71 19 39 14 38 5 25 156
-10 106 -4 129 36 152 60 33 100 20 205 -69 52 -44 68 -53 82 -45 20 11 92 87
92 97 0 3 -18 26 -40 51 -61 70 -100 133 -100 164 0 39 31 88 59 96 13 3 62 2
110 -2 157 -13 143 -17 162 45 28 86 28 84 -63 116 -45 16 -99 41 -120 56 -35
26 -38 32 -38 76 0 26 4 52 8 57 15 22 70 53 142 80 41 16 79 32 83 35 8 7
-19 129 -31 142 -4 4 -50 0 -102 -9 -120 -21 -164 -14 -190 30 -36 59 -24 97
68 210 l55 68 -53 54 -53 54 -66 -55 c-119 -99 -174 -112 -228 -58 -25 25 -25
29 -19 117 3 51 9 109 12 129 l6 37 -53 15 c-87 26 -95 24 -115 -36 -25 -79
-71 -166 -93 -178 -11 -5 -37 -10 -59 -10 -57 0 -88 40 -142 188 -12 34 -23
62 -24 61 0 0 -34 -10 -74 -21z m395 -489 c95 -32 198 -120 241 -206 79 -154
65 -346 -36 -478 -156 -205 -462 -235 -649 -62 -121 111 -171 262 -139 415 19
91 57 163 121 228 117 119 299 159 462 103z"/>
<path d="M10714 2351 c-48 -12 -133 -62 -160 -94 -14 -17 -37 -53 -52 -81 -35
-69 -38 -187 -5 -258 32 -70 94 -131 164 -163 55 -24 70 -27 143 -23 173 10
284 121 294 294 4 73 1 88 -23 143 -32 70 -94 133 -163 163 -50 22 -149 32
-198 19z m156 -173 c48 -33 72 -70 77 -119 10 -98 -78 -186 -176 -176 -50 5
-86 29 -119 78 -30 44 -28 129 6 176 45 63 149 83 212 41z"/>
</g>
</svg>
