<?xml version="1.0" encoding="UTF-8" standalone="no"?>
<svg
   xmlns:dc="http://purl.org/dc/elements/1.1/"
   xmlns:cc="http://creativecommons.org/ns#"
   xmlns:rdf="http://www.w3.org/1999/02/22-rdf-syntax-ns#"
   xmlns:svg="http://www.w3.org/2000/svg"
   xmlns="http://www.w3.org/2000/svg"
   xmlns:sodipodi="http://sodipodi.sourceforge.net/DTD/sodipodi-0.dtd"
   xmlns:inkscape="http://www.inkscape.org/namespaces/inkscape"
   version="1.1"
   id="Layer_1"
   x="0px"
   y="0px"
   viewBox="0 0 438.32545 470.32899"
   xml:space="preserve"
   sodipodi:docname="developer.svg"
   inkscape:version="1.0.1 (3bc2e813f5, 2020-09-07)"
   width="438.32544"
   height="470.32898"><metadata
     id="metadata13"><rdf:RDF><cc:Work
         rdf:about=""><dc:format>image/svg+xml</dc:format><dc:type
           rdf:resource="http://purl.org/dc/dcmitype/StillImage" /><dc:title></dc:title></cc:Work></rdf:RDF></metadata><defs
     id="defs11" /><sodipodi:namedview
     pagecolor="#ffffff"
     bordercolor="#666666"
     borderopacity="1"
     objecttolerance="10"
     gridtolerance="10"
     guidetolerance="10"
     inkscape:pageopacity="0"
     inkscape:pageshadow="2"
     inkscape:window-width="1280"
     inkscape:window-height="961"
     id="namedview9"
     showgrid="false"
     inkscape:zoom="0.8"
     inkscape:cx="79.457903"
     inkscape:cy="41.377958"
     inkscape:window-x="-8"
     inkscape:window-y="-8"
     inkscape:window-maximized="1"
     inkscape:current-layer="Layer_1"
     inkscape:document-rotation="0"
     fit-margin-top="0"
     fit-margin-left="0"
     fit-margin-right="0"
     fit-margin-bottom="0" /><style
     type="text/css"
     id="style2">.st0{fill-rule:evenodd;clip-rule:evenodd;}</style><g
     id="g6"
     style="fill:#43cea1;fill-opacity:1"
     transform="matrix(4.264788,0,0,3.1188019,0,2.0594331)"><path
       class="st0"
       d="m 47.48,108.43 c 2.21,0 4,1.79 4,4 0,2.21 -1.79,4 -4,4 -2.21,0 -4,-1.79 -4,-4 0,-2.21 1.79,-4 4,-4 z M 21.64,67.48 C 21.58,67.36 21.51,67.25 21.43,67.14 21.08,66.57 20.73,66 20.38,65.35 20.03,64.65 19.68,63.99 19.37,63.38 19.06,62.72 18.76,62.02 18.5,61.32 18.28,60.71 18.02,60.01 17.76,59.18 17.37,58 16.27,57.26 15.09,57.26 H 7.52 C 7.26,57.26 7,57.22 6.82,57.13 6.65,57.04 6.43,56.91 6.3,56.74 6.13,56.56 5.99,56.39 5.91,56.22 5.82,56.05 5.78,55.78 5.78,55.52 v -9.54 c 0,-0.26 0.04,-0.48 0.09,-0.66 0.09,-0.18 0.22,-0.39 0.44,-0.61 0.17,-0.17 0.35,-0.31 0.52,-0.35 0.18,-0.09 0.44,-0.13 0.7,-0.13 h 6.95 c 1.4,0 2.54,-1.01 2.8,-2.32 0.17,-0.74 0.35,-1.44 0.52,-2.06 0.22,-0.7 0.44,-1.36 0.7,-2.06 0.26,-0.66 0.52,-1.36 0.87,-2.01 0.31,-0.7 0.66,-1.31 0.96,-1.92 0.61,-1.14 0.39,-2.45 -0.48,-3.32 l -5.42,-5.47 c -0.04,-0.04 -0.04,-0.04 -0.09,-0.04 -0.17,-0.17 -0.31,-0.35 -0.39,-0.52 -0.09,-0.17 -0.09,-0.35 -0.09,-0.61 0,-0.26 0.04,-0.48 0.13,-0.66 0.09,-0.22 0.22,-0.39 0.44,-0.61 l 6.69,-6.65 c 0.22,-0.22 0.39,-0.35 0.61,-0.44 0.18,-0.09 0.39,-0.13 0.66,-0.13 0.26,0 0.48,0.04 0.66,0.13 0.18,0.09 0.39,0.22 0.57,0.39 h 0.04 l 4.94,4.94 c 0.96,0.96 2.49,1.09 3.59,0.31 0.57,-0.35 1.14,-0.7 1.79,-1.05 0.7,-0.35 1.36,-0.7 1.97,-1.01 0.66,-0.31 1.36,-0.61 2.06,-0.87 0.61,-0.22 1.31,-0.48 2.14,-0.74 1.18,-0.39 1.92,-1.49 1.92,-2.67 V 7.26 C 42.07,7 42.11,6.74 42.2,6.56 42.29,6.39 42.42,6.21 42.55,6.04 42.73,5.87 42.9,5.73 43.07,5.69 43.24,5.6 43.51,5.56 43.77,5.56 h 6.72 0.08 0.69 c 0.26,0 0.52,0.04 0.7,0.13 0.17,0.04 0.35,0.18 0.52,0.35 0.13,0.17 0.26,0.35 0.35,0.52 0.09,0.17 0.13,0.44 0.13,0.7 v 7.57 c 0,1.18 0.74,2.27 1.92,2.67 0.83,0.26 1.53,0.52 2.14,0.74 0.7,0.26 1.4,0.57 2.06,0.87 0.61,0.31 1.27,0.66 1.97,1.01 0.66,0.35 1.22,0.7 1.79,1.05 1.09,0.79 2.62,0.66 3.59,-0.31 l 4.94,-4.94 h 0.04 c 0.17,-0.17 0.39,-0.31 0.57,-0.39 0.17,-0.09 0.39,-0.13 0.66,-0.13 0.26,0 0.48,0.04 0.66,0.13 0.22,0.09 0.39,0.22 0.61,0.44 l 6.69,6.65 c 0.22,0.22 0.35,0.39 0.44,0.61 0.09,0.17 0.13,0.39 0.13,0.66 0,0.26 0,0.44 -0.09,0.61 -0.09,0.18 -0.22,0.35 -0.39,0.52 -0.04,0 -0.04,0 -0.09,0.04 l -5.42,5.47 c -0.87,0.87 -1.09,2.19 -0.48,3.32 0.31,0.61 0.66,1.22 0.96,1.92 0.35,0.66 0.61,1.36 0.87,2.01 0.26,0.7 0.48,1.36 0.7,2.06 0.17,0.61 0.35,1.31 0.52,2.06 0.26,1.31 1.4,2.32 2.8,2.32 h 6.95 c 0.26,0 0.52,0.04 0.7,0.13 0.17,0.04 0.35,0.17 0.52,0.35 0.22,0.22 0.35,0.44 0.44,0.61 0.04,0.17 0.09,0.39 0.09,0.66 v 9.54 c 0,0.26 -0.04,0.52 -0.13,0.7 -0.09,0.18 -0.22,0.35 -0.39,0.52 -0.13,0.17 -0.35,0.31 -0.52,0.39 -0.18,0.09 -0.44,0.13 -0.7,0.13 h -7.57 c -1.18,0 -2.27,0.74 -2.67,1.92 -0.26,0.83 -0.52,1.53 -0.74,2.14 -0.26,0.7 -0.57,1.4 -0.87,2.06 -0.31,0.61 -0.66,1.27 -1.01,1.97 -0.35,0.66 -0.7,1.23 -1.05,1.79 -0.08,0.11 -0.15,0.22 -0.21,0.34 h 6.62 c 0.28,-0.56 0.56,-1.16 0.85,-1.78 0.35,-0.79 0.7,-1.57 1.01,-2.36 0.04,-0.13 0.13,-0.31 0.18,-0.44 h 5.6 c 1.01,0 1.97,-0.17 2.84,-0.52 0.87,-0.35 1.71,-0.92 2.41,-1.62 0.7,-0.7 1.27,-1.49 1.62,-2.41 0.35,-0.92 0.52,-1.84 0.52,-2.84 v -9.53 c 0,-0.96 -0.22,-1.92 -0.57,-2.8 C 94.12,42.3 93.6,41.51 92.9,40.81 l -0.04,-0.04 c -0.7,-0.7 -1.49,-1.27 -2.36,-1.62 -0.87,-0.39 -1.84,-0.57 -2.84,-0.57 h -4.77 c 0,-0.13 -0.04,-0.22 -0.09,-0.35 -0.26,-0.83 -0.52,-1.66 -0.83,-2.45 -0.35,-0.83 -0.66,-1.62 -1.01,-2.36 -0.04,-0.09 -0.13,-0.22 -0.17,-0.35 l 3.94,-3.98 c 0.74,-0.66 1.27,-1.44 1.66,-2.32 0.35,-0.87 0.57,-1.84 0.57,-2.84 0,-1.01 -0.17,-1.92 -0.57,-2.84 C 86,20.22 85.47,19.43 84.77,18.73 h -0.04 l -6.69,-6.65 c -0.7,-0.7 -1.49,-1.22 -2.41,-1.62 -0.92,-0.39 -1.84,-0.57 -2.84,-0.57 -0.96,0 -1.92,0.17 -2.84,0.57 -0.92,0.35 -1.71,0.92 -2.41,1.62 l -3.41,3.37 -0.26,-0.13 c -0.7,-0.39 -1.49,-0.74 -2.32,-1.14 -0.79,-0.35 -1.57,-0.7 -2.36,-1.01 -0.13,-0.04 -0.31,-0.13 -0.44,-0.18 V 7.39 C 58.75,6.38 58.58,5.42 58.23,4.55 57.88,3.67 57.31,2.84 56.61,2.14 55.87,1.44 55.08,0.87 54.2,0.52 53.29,0.17 52.37,0 51.36,0 h -3.45 -0.77 -3.45 c -1.01,0 -1.92,0.17 -2.84,0.52 -0.87,0.35 -1.66,0.92 -2.41,1.62 -0.7,0.7 -1.27,1.53 -1.62,2.41 -0.35,0.87 -0.52,1.84 -0.52,2.84 v 5.6 c -0.13,0.04 -0.31,0.13 -0.44,0.18 -0.79,0.31 -1.57,0.66 -2.36,1.01 -0.83,0.39 -1.62,0.74 -2.32,1.14 l -0.26,0.13 -3.41,-3.37 c -0.7,-0.7 -1.49,-1.27 -2.41,-1.62 -0.92,-0.39 -1.88,-0.57 -2.84,-0.57 -1.01,0 -1.92,0.17 -2.84,0.57 -0.92,0.39 -1.71,0.92 -2.41,1.62 l -6.69,6.65 h -0.04 c -0.7,0.7 -1.22,1.49 -1.62,2.36 -0.39,0.91 -0.57,1.83 -0.57,2.83 0,1.01 0.22,1.97 0.57,2.84 0.39,0.87 0.92,1.66 1.66,2.32 l 3.94,3.98 c -0.04,0.13 -0.13,0.26 -0.17,0.35 -0.35,0.74 -0.66,1.53 -1.01,2.36 -0.31,0.79 -0.57,1.62 -0.83,2.45 -0.04,0.13 -0.09,0.22 -0.09,0.35 H 7.39 c -1.01,0 -1.97,0.18 -2.84,0.57 -0.87,0.35 -1.66,0.92 -2.36,1.62 L 2.15,40.8 C 1.45,41.5 0.93,42.29 0.58,43.16 0.22,44.04 0,45.01 0,45.97 v 9.53 c 0,1.01 0.17,1.92 0.52,2.84 0.35,0.92 0.92,1.71 1.62,2.41 0.7,0.7 1.53,1.27 2.41,1.62 0.87,0.35 1.84,0.52 2.84,0.52 h 5.6 c 0.04,0.13 0.13,0.31 0.18,0.44 0.31,0.79 0.66,1.57 1.01,2.36 0.3,0.63 0.57,1.23 0.85,1.78 h 6.61 z m 10.83,-8.85 c -0.83,0.03 -1.47,0.2 -1.9,0.5 -0.25,0.17 -0.43,0.38 -0.54,0.63 -0.13,0.28 -0.19,0.62 -0.18,1.01 0.03,1.14 0.63,2.64 1.79,4.37 l 0.02,0.02 3.76,5.99 c 1.51,2.4 3.09,4.85 5.06,6.64 1.89,1.73 4.18,2.9 7.22,2.91 3.28,0.01 5.69,-1.21 7.64,-3.03 2.03,-1.9 3.63,-4.5 5.2,-7.1 l 4.24,-6.98 c 0.79,-1.8 1.08,-3.01 0.9,-3.72 -0.11,-0.42 -0.57,-0.63 -1.37,-0.67 -0.17,-0.01 -0.34,-0.01 -0.52,-0.01 -0.19,0.01 -0.39,0.02 -0.59,0.04 -0.11,0.01 -0.22,0 -0.33,-0.02 -0.38,0.02 -0.77,-0.01 -1.16,-0.06 l 1.45,-6.43 c -10.77,1.7 -18.83,-6.3 -30.22,-1.6 l 0.82,7.57 c -0.45,0.01 -0.89,0 -1.29,-0.06 z m 33.29,-1.35 c 1.04,0.32 1.71,0.98 1.99,2.05 0.3,1.19 -0.03,2.86 -1.03,5.14 v 0 c -0.02,0.04 -0.04,0.08 -0.06,0.12 l -4.29,7.06 c -1.65,2.72 -3.33,5.45 -5.57,7.55 l -0.11,0.1 c 0.21,0.31 0.45,0.65 0.69,1.01 0.74,1.09 1.59,2.34 2.38,3.31 4.66,2.9 14.91,3.68 18.92,5.91 10.2,5.69 6.48,19.51 7.22,29.45 -0.22,2.35 -1.55,3.7 -4.17,3.9 H 78.9 l 3.11,-23.57 c 0.24,-1.84 -1.06,-3.34 -2.67,-3.34 H 57.47 c 0.54,-3.85 0.93,-7.53 1.12,-10.31 -1.02,-1.13 -2.11,-2.73 -3.05,-4.11 -0.21,-0.3 -0.41,-0.6 -0.6,-0.87 -1.97,1.32 -4.31,2.14 -7.24,2.13 -3.27,-0.01 -5.82,-1.13 -7.93,-2.84 -0.59,1.77 -1.46,4.21 -2.3,5.38 -0.07,0.1 -0.16,0.19 -0.26,0.26 0.36,2.87 0.86,6.55 1.45,10.37 h -22.4 c -1.6,0 -2.91,1.5 -2.67,3.34 l 3.11,23.57 h -2.84 c -2.62,-0.2 -3.95,-1.55 -4.17,-3.9 0.13,-10.53 -3.87,-23.27 7.22,-29.45 4.06,-2.27 14.53,-3.04 19.1,-6.03 0.7,-1.31 1.47,-3.67 1.94,-5.07 0.05,-0.16 -0.03,0.1 0.05,-0.13 -1.68,-1.8 -3.05,-3.93 -4.37,-6.03 L 29.87,66.3 c -1.38,-2.05 -2.09,-3.93 -2.14,-5.47 -0.02,-0.72 0.1,-1.38 0.37,-1.96 0.28,-0.6 0.71,-1.11 1.29,-1.5 0.27,-0.18 0.58,-0.34 0.91,-0.47 -0.24,-3.25 -0.34,-7.34 -0.18,-10.76 0.08,-0.81 0.24,-1.63 0.46,-2.44 1.38,-4.92 5.61,-8.47 10.44,-10.14 2.34,-0.81 1.44,-2.74 3.81,-2.61 5.62,0.31 14.28,3.93 17.61,7.77 4.68,5.37 3.47,11.99 3.32,18.56 z M 40.04,90.19 c -1.9,-2.16 -2.06,-4.42 0,-6.81 2.38,0.6 4.56,1.63 6.57,3.02 0.43,-0.19 0.94,-0.27 1.43,-0.23 2.09,-1.48 4.75,-2.08 7.08,-3.19 2.78,2.71 2.48,5.2 -0.25,7.51 -1.53,-0.35 -2.98,-0.89 -4.37,-1.6 -0.04,0.36 -0.13,0.75 -0.3,1.17 l 0.71,5.91 h -5.67 l 0.71,-5.91 c -0.44,-0.75 -0.61,-1.39 -0.6,-1.92 -1.65,0.99 -3.44,1.63 -5.31,2.05 z"
       id="path4"
       style="fill:#43cea1;fill-opacity:1" /></g></svg>
