<svg class="thumb" width="1000" height="1000" viewBox="0,0,600,600" xmlns="http://www.w3.org/2000/svg" xmlns:inkscape="http://www.inkscape.org/namespaces/inkscape" xmlns:sodipodi="http://sodipodi.sourceforge.net/DTD/sodipodi-0.dtd" xmlns:xlink="http://www.w3.org/1999/xlink" xmlns:ns1="http://www.inkscape.org/namespaces/inkscape" xmlns:sketch="http://www.bohemiancoding.com/sketch/ns">
  <defs></defs>
  <g transform="matrix(1.5902,0,0,1.5902,-45.0692,24.8902)">
    <g transform="matrix(-0.343,-0.1901,0.1901,-0.343,222.3501,345.4529)">
      <svg width="510" height="443.015" viewBox="-5,25.16,510,443.015" class="thumb">
        <defs>
          <linearGradient x1="0" y1="0.5" x2="1" y2="0.5" id="linearGradientSkdy7krgw4">
            <stop offset="0%" stop-color="#31e8e8" stop-opacity="0.6"></stop>
            <stop offset="100%" stop-color="#31e8e8" stop-opacity="0.6"></stop>
          </linearGradient>
        </defs>
        <g></g>
        <g></g>
        <g></g>
        <g></g>
        <g></g>
        <g>
          <polygon points="125,463.175 0,246.667 125,30.16 374.999,30.16 500,246.667 374.999,463.175 " fill="url('#linearGradientSkdy7krgw4')" stroke="none" style=""></polygon>
        </g>
      </svg>
    </g>
    <g transform="matrix(-0.343,-0.1901,0.1901,-0.343,220.3501,249.4529)">
      <svg width="510" height="443.015" viewBox="-5,25.16,510,443.015" class="thumb">
        <defs>
          <linearGradient x1="0" y1="0.5" x2="1" y2="0.5" id="linearGradientSkdy7krgwa">
            <stop offset="0%" stop-color="#31e89f" stop-opacity="0.6"></stop>
            <stop offset="100%" stop-color="#31e89f" stop-opacity="0.6"></stop>
          </linearGradient>
        </defs>
        <g></g>
        <g></g>
        <g></g>
        <g></g>
        <g></g>
        <g>
          <polygon points="125,463.175 0,246.667 125,30.16 374.999,30.16 500,246.667 374.999,463.175 " fill="url('#linearGradientSkdy7krgwa')" stroke="none" style=""></polygon>
        </g>
      </svg>
    </g>
    <g transform="matrix(-0.343,-0.1901,0.1901,-0.343,304.3501,295.4529)">
      <svg width="510" height="443.015" viewBox="-5,25.16,510,443.015" class="thumb">
        <defs>
          <linearGradient x1="0" y1="0.5" x2="1" y2="0.5" id="linearGradientSkdy7krgwg">
            <stop offset="0%" stop-color="#31c6e8" stop-opacity="0.6"></stop>
            <stop offset="100%" stop-color="#31c6e8" stop-opacity="0.6"></stop>
          </linearGradient>
        </defs>
        <g></g>
        <g></g>
        <g></g>
        <g></g>
        <g></g>
        <g>
          <polygon points="125,463.175 0,246.667 125,30.16 374.999,30.16 500,246.667 374.999,463.175 " fill="url('#linearGradientSkdy7krgwg')" stroke="none" style=""></polygon>
        </g>
      </svg>
    </g>
    <g transform="matrix(0.5,0,0,0.5,121.725,154.5)">
      <svg width="359.3" height="160" style="overflow: visible;">
        <defs>
          <linearGradient x1="0" y1="0.5" x2="1" y2="0.5" id="linearGradientSkdy7krgwo">
            <stop offset="0%" stop-color="#000000"></stop>
            <stop offset="100%" stop-color="#000000"></stop>
          </linearGradient>
        </defs>
        <g transform="matrix(1,0,0,1,0,75)">
          <path d="M 25.4 0L 25.4 0L 10.5 0Q 8.6 0  7.75-0.85Q 6.9-1.7  6.9-3.6L 6.9-3.6L 6.9-68.4Q 6.9-70.3  7.75-71.15Q 8.6-72  10.5-72L 10.5-72L 26.6-72Q 28.2-72  29.25-71.3Q 30.3-70.6  31.2-69L 31.2-69L 40.2-52.7Q 40.7-51.8  41.05-51.4Q 41.4-51  42-51L 42-51L 42.9-51Q 43.5-51  43.85-51.4Q 44.2-51.8  44.7-52.7L 44.7-52.7L 53.6-69Q 54.5-70.6  55.55-71.3Q 56.6-72  58.2-72L 58.2-72L 74.4-72Q 76.3-72  77.15-71.15Q 78-70.3  78-68.4L 78-68.4L 78-3.6Q 78-1.7  77.15-0.85Q 76.3 0  74.4 0L 74.4 0L 59 0Q 57.1 0  56.25-0.85Q 55.4-1.7  55.4-3.6L 55.4-3.6L 55.4-38.8L 49.5-27.9Q 48.6-26.2  47.35-25.45Q 46.1-24.7  44.2-24.7L 44.2-24.7L 40.2-24.7Q 38.3-24.7  37.05-25.45Q 35.8-26.2  34.9-27.9L 34.9-27.9L 29-38.8L 29-3.6Q 29-1.7  28.15-0.85Q 27.3 0  25.4 0ZM 136.39999999999998 0L 93.79999999999998 0Q 91.89999999999998 0  91.04999999999998-0.85Q 90.19999999999997-1.7  90.19999999999997-3.6L 90.19999999999997-3.6L 90.19999999999997-15.5Q 90.19999999999997-17.4  91.04999999999998-18.25Q 91.89999999999998-19.1  93.79999999999998-19.1L 93.79999999999998-19.1L 103.69999999999997-19.1L 103.69999999999997-52.7L 93.79999999999998-52.7Q 91.89999999999998-52.7  91.04999999999998-53.55Q 90.19999999999997-54.4  90.19999999999997-56.3L 90.19999999999997-56.3L 90.19999999999997-68.4Q 90.19999999999997-70.3  91.04999999999998-71.15Q 91.89999999999998-72  93.79999999999998-72L 93.79999999999998-72L 136.39999999999998-72Q 138.29999999999998-72  139.14999999999998-71.15Q 139.99999999999997-70.3  139.99999999999997-68.4L 139.99999999999997-68.4L 139.99999999999997-56.3Q 139.99999999999997-54.4  139.14999999999998-53.55Q 138.29999999999998-52.7  136.39999999999998-52.7L 136.39999999999998-52.7L 126.69999999999997-52.7L 126.69999999999997-19.1L 136.39999999999998-19.1Q 138.29999999999998-19.1  139.14999999999998-18.25Q 139.99999999999997-17.4  139.99999999999997-15.5L 139.99999999999997-15.5L 139.99999999999997-3.6Q 139.99999999999997-1.7  139.14999999999998-0.85Q 138.29999999999998 0  136.39999999999998 0L 136.39999999999998 0ZM 186.29999999999998 0L 186.29999999999998 0L 170.09999999999997 0Q 168.2 0  167.34999999999997-0.85Q 166.49999999999997-1.7  166.49999999999997-3.6L 166.49999999999997-3.6L 166.49999999999997-52.7L 151.79999999999998-52.7Q 149.89999999999998-52.7  149.04999999999998-53.55Q 148.2-54.4  148.2-56.3L 148.2-56.3L 148.2-68.4Q 148.2-70.3  149.04999999999998-71.15Q 149.89999999999998-72  151.79999999999998-72L 151.79999999999998-72L 204.59999999999997-72Q 206.49999999999997-72  207.34999999999997-71.15Q 208.2-70.3  208.2-68.4L 208.2-68.4L 208.2-56.3Q 208.2-54.4  207.34999999999997-53.55Q 206.49999999999997-52.7  204.59999999999997-52.7L 204.59999999999997-52.7L 189.89999999999998-52.7L 189.89999999999998-3.6Q 189.89999999999998-1.7  189.04999999999998-0.85Q 188.2 0  186.29999999999998 0ZM 279.2-68.4L 279.2-18.9Q 279.2-14.3  277.85-10.55Q 276.5-6.8  273.05-4.15Q 269.6-1.5  263.6 0Q 257.6 1.5  248.3 1.5L 248.3 1.5Q 239 1.5  233 0Q 227-1.5  223.55-4.15Q 220.1-6.8  218.75-10.55Q 217.4-14.3  217.4-18.9L 217.4-18.9L 217.4-68.4Q 217.4-70.3  218.25-71.15Q 219.1-72  221-72L 221-72L 236.7-72Q 238.6-72  239.45-71.15Q 240.3-70.3  240.3-68.4L 240.3-68.4L 240.3-22.8Q 240.3-20.8  241.8-19.45Q 243.3-18.1  248.5-18.1L 248.5-18.1Q 253.8-18.1  255.3-19.45Q 256.8-20.8  256.8-22.8L 256.8-22.8L 256.8-68.4Q 256.8-70.3  257.65-71.15Q 258.5-72  260.4-72L 260.4-72L 275.6-72Q 277.5-72  278.35-71.15Q 279.2-70.3  279.2-68.4L 279.2-68.4ZM 313.99999999999994-13.5L 313.99999999999994-3.6Q 313.99999999999994-1.7  313.15-0.85Q 312.29999999999995 0  310.4 0L 310.4 0L 295.2 0Q 293.29999999999995 0  292.45-0.85Q 291.59999999999997-1.7  291.59999999999997-3.6L 291.59999999999997-3.6L 291.59999999999997-14.3Q 291.59999999999997-18.9  292.4-21.2Q 293.2-23.5  295.4-26.6L 295.4-26.6L 303.49999999999994-37.5L 295.4-48.4Q 293.09999999999997-51.5  292.34999999999997-53.8Q 291.59999999999997-56.1  291.59999999999997-60.7L 291.59999999999997-60.7L 291.59999999999997-68.4Q 291.59999999999997-70.3  292.45-71.15Q 293.29999999999995-72  295.2-72L 295.2-72L 310.59999999999997-72Q 312.49999999999994-72  313.34999999999997-71.15Q 314.2-70.3  314.2-68.4L 314.2-68.4L 314.2-61.5Q 314.2-60.5  314.29999999999995-59.4Q 314.4-58.3  315.09999999999997-57.3L 315.09999999999997-57.3L 319.49999999999994-51Q 319.99999999999994-50.2  320.54999999999995-49.75Q 321.09999999999997-49.3  321.9-49.3L 321.9-49.3L 323.09999999999997-49.3Q 323.9-49.3  324.4-49.75Q 324.9-50.2  325.49999999999994-51L 325.49999999999994-51L 329.99999999999994-57.3Q 330.7-58.3  330.79999999999995-59.4Q 330.9-60.5  330.9-61.5L 330.9-61.5L 330.9-68.4Q 330.9-70.3  331.74999999999994-71.15Q 332.59999999999997-72  334.49999999999994-72L 334.49999999999994-72L 349.69999999999993-72Q 351.59999999999997-72  352.44999999999993-71.15Q 353.29999999999995-70.3  353.29999999999995-68.4L 353.29999999999995-68.4L 353.29999999999995-60.7Q 353.29999999999995-56.1  352.5-53.8Q 351.69999999999993-51.5  349.49999999999994-48.4L 349.49999999999994-48.4L 341.4-37.4L 349.49999999999994-26.6Q 351.79999999999995-23.5  352.54999999999995-21.2Q 353.29999999999995-18.9  353.29999999999995-14.3L 353.29999999999995-14.3L 353.29999999999995-3.6Q 353.29999999999995-1.7  352.44999999999993-0.85Q 351.59999999999997 0  349.69999999999993 0L 349.69999999999993 0L 334.49999999999994 0Q 332.59999999999997 0  331.74999999999994-0.85Q 330.9-1.7  330.9-3.6L 330.9-3.6L 330.9-13.5Q 330.9-14.5  330.79999999999995-15.6Q 330.7-16.7  329.99999999999994-17.7L 329.99999999999994-17.7L 325.59999999999997-24Q 324.99999999999994-24.9  324.49999999999994-25.3Q 323.99999999999994-25.7  323.2-25.7L 323.2-25.7L 321.79999999999995-25.7Q 320.99999999999994-25.7  320.49999999999994-25.3Q 319.99999999999994-24.9  319.4-24L 319.4-24L 314.9-17.7Q 314.2-16.7  314.09999999999997-15.6Q 313.99999999999994-14.5  313.99999999999994-13.5L 313.99999999999994-13.5Z" data-textpath="MITUX" data-text-anchor="middle" data-font-size="100" data-letterspacing="0" data-side="left" data-offset="0.5" data-dx="0" data-dy="0" data-xmlspace="preserve" data-href="" data-font="Bungee" data-font-src="/Content/clientfonts/bungee.woff" data-font-scale="contain" transform="translate(0,0)" data-x="0" data-y="0" fill="url('#linearGradientSkdy7krgwo')"></path>
        </g>
      </svg>
    </g>
  </g>
</svg>